# xmcd CD database file
#
# Track frame offsets:
#	150
#	22540
#	52567
#	79850
#	84860
#	102730
#	109430
#	141890
#	168455
#	196167
#	216715
#	237665
#	265655
#	290435
#
# Disc length: 4536 seconds
#
# Revision: 3
# Processed by: cddbd v1.5.2PL0 Copyright (c) Steve Scherf et al.
# Submitted via: CDex 1.70beta2
#
DISCID=c111b60e
DTITLE=Meat Loaf - WELCOME TO THE NEIGHBOURHOOD
DYEAR=1995
DGENRE=Rock
TTITLE0=Where The Rubber Meets The Road
TTITLE1=I'd Lie For You (And That's The Truth)
TTITLE2=Original Sin
TTITLE3=45 Seconds Of Ecstacy
TTITLE4=Runnin' For The Red Light (I Gotta Life)
TTITLE5=Fiesta De Las Almas Perdidas
TTITLE6=Left In The Dark
TTITLE7=Not A Dry Eye In The House
TTITLE8=Amnesty Is Granted
TTITLE9=If This Is The Last Kiss (Let's Make It Last All Night)
TTITLE10=Martha
TTITLE11=Where Angels Sing
TTITLE12=I'd Do Anything For Love (But I Won't Do That) (Live) [Bonus Track]
TTITLE13=Bat Out Of Hell (Live) [Bonus Track]
EXTD=YEAR: 1995
EXTT0=
EXTT1=
EXTT2=
EXTT3=
EXTT4=
EXTT5=
EXTT6=
EXTT7=
EXTT8=
EXTT9=
EXTT10=
EXTT11=
EXTT12=
EXTT13=
PLAYORDER=
